<svg width="200" height="202" viewBox="0 0 200 202" fill="none" xmlns="http://www.w3.org/2000/svg">
<path d="M200 100C200 155.228 155.228 200 100 200C44.7715 200 0 155.228 0 100C0 44.7715 44.7715 0 100 0C155.228 0 200 44.7715 200 100ZM20 100C20 144.183 55.8172 180 100 180C144.183 180 180 144.183 180 100C180 55.8172 144.183 20 100 20C55.8172 20 20 55.8172 20 100Z" fill="url(#paint0_linear_3_617)"/>
<path d="M52.962 179.362C52.805 179.736 52.8166 180.1 52.9966 180.454C53.1752 180.81 53.483 181.109 53.9201 181.352C54.2329 181.526 54.5313 181.627 54.8151 181.655C55.0975 181.685 55.3498 181.65 55.572 181.549C55.7903 181.449 55.9597 181.292 56.0802 181.076C56.1813 180.895 56.2263 180.715 56.2153 180.537C56.2018 180.357 56.1504 180.184 56.0612 180.017C55.9682 179.852 55.8576 179.694 55.7294 179.545C55.5999 179.398 55.471 179.265 55.3428 179.145L54.7059 178.537C54.4958 178.342 54.2913 178.123 54.0923 177.879C53.8933 177.635 53.731 177.369 53.6052 177.082C53.4795 176.794 53.4182 176.49 53.4212 176.17C53.4217 175.849 53.5175 175.517 53.7086 175.174C53.9496 174.743 54.2753 174.422 54.6857 174.211C55.0936 173.999 55.5626 173.914 56.0928 173.955C56.6204 173.995 57.1822 174.18 57.7781 174.511C58.3492 174.829 58.7928 175.194 59.1088 175.607C59.4249 176.02 59.608 176.458 59.6584 176.922C59.7073 177.388 59.6161 177.857 59.3847 178.33L58.2302 177.688C58.3615 177.4 58.4002 177.121 58.3463 176.851C58.2884 176.581 58.1616 176.334 57.9656 176.108C57.7658 175.883 57.5181 175.688 57.2226 175.524C56.8974 175.343 56.5797 175.233 56.2697 175.194C55.9558 175.156 55.6743 175.188 55.4253 175.29C55.175 175.395 54.9806 175.571 54.8421 175.819C54.7161 176.045 54.6775 176.266 54.7263 176.481C54.7726 176.695 54.8787 176.91 55.0446 177.126C55.208 177.341 55.4061 177.56 55.6391 177.783L56.4033 178.53C56.9214 179.036 57.2692 179.549 57.4467 180.071C57.6217 180.591 57.5611 181.116 57.2647 181.647C57.0196 182.086 56.6865 182.403 56.2653 182.598C55.8442 182.793 55.3794 182.867 54.8711 182.822C54.3615 182.779 53.8509 182.616 53.3394 182.331C52.8229 182.044 52.4178 181.7 52.1241 181.3C51.8279 180.898 51.6543 180.475 51.6031 180.03C51.5505 179.588 51.6335 179.16 51.8521 178.745L52.962 179.362Z" fill="#49341B"/>
<path d="M46.2153 176.455L45.5349 177.361L40.1246 173.318L40.805 172.411L42.9862 174.042L47.5442 167.968L48.5955 168.754L44.0375 174.827L46.2153 176.455Z" fill="#49341B"/>
<path d="M40.9588 162.429L41.9511 163.413L33.5621 167.384L32.4821 166.313L36.412 157.918L37.4043 158.902L34.1152 165.7L34.1636 165.748L40.9588 162.429ZM38.3804 164.685L35.1616 161.492L35.9436 160.707L39.1624 163.9L38.3804 164.685Z" fill="#49341B"/>
<path d="M33.0266 153.918L26.0665 159.183L24.1333 156.638C23.7587 156.145 23.53 155.675 23.4474 155.228C23.3626 154.783 23.3973 154.375 23.5517 154.006C23.7039 153.638 23.9521 153.323 24.2965 153.063C24.5865 152.843 24.8716 152.711 25.1517 152.667C25.4296 152.624 25.6964 152.647 25.9523 152.735C26.2041 152.822 26.438 152.951 26.6539 153.123L26.7219 153.071C26.5579 152.832 26.4617 152.55 26.4332 152.226C26.4008 151.902 26.4553 151.572 26.5968 151.237C26.7383 150.902 26.9892 150.598 27.3494 150.326C27.7051 150.057 28.0882 149.899 28.4985 149.852C28.9049 149.805 29.3223 149.891 29.7506 150.112C30.1766 150.335 30.5942 150.716 31.0032 151.254L33.0266 153.918ZM31.3295 153.551L30.1799 152.037C29.7984 151.535 29.4277 151.249 29.0679 151.179C28.7081 151.109 28.3821 151.185 28.0898 151.406C27.87 151.572 27.7105 151.78 27.6112 152.03C27.5119 152.28 27.486 152.549 27.5336 152.837C27.5795 153.123 27.709 153.406 27.9221 153.686L29.1001 155.237L31.3295 153.551ZM28.2811 155.857L27.2139 154.452C27.0352 154.217 26.8292 154.039 26.596 153.92C26.361 153.799 26.1198 153.744 25.8725 153.757C25.6212 153.769 25.3834 153.86 25.1591 154.029C24.8714 154.247 24.7065 154.53 24.6646 154.879C24.6227 155.228 24.7599 155.61 25.0761 156.026L26.1638 157.458L28.2811 155.857Z" fill="#49341B"/>
<path d="M26.4215 144.522L18.8409 148.847L18.1864 147.704L24.7824 143.941L22.8168 140.51L23.8014 139.948L26.4215 144.522Z" fill="#49341B"/>
<path d="M21.4846 135.168L13.4102 138.48L11.3264 133.421L12.3752 132.99L13.9574 136.832L16.4176 135.823L14.9441 132.245L15.9889 131.817L17.4624 135.395L19.9344 134.381L18.3327 130.492L19.3814 130.061L21.4846 135.168Z" fill="#49341B"/>
<path d="M8.63866 110.476L8.84717 111.789C8.57458 111.884 8.34257 112.017 8.15115 112.188C7.95972 112.36 7.80546 112.557 7.68837 112.779C7.57128 113.002 7.49446 113.243 7.4579 113.502C7.4209 113.758 7.42423 114.023 7.46789 114.298C7.54675 114.795 7.74223 115.22 8.05435 115.573C8.36601 115.924 8.78121 116.174 9.29993 116.325C9.81821 116.474 10.4253 116.493 11.1212 116.383C11.8227 116.272 12.397 116.066 12.844 115.765C13.2905 115.461 13.6061 115.094 13.7906 114.662C13.9752 114.23 14.0285 113.768 13.9505 113.277C13.9073 113.005 13.8298 112.753 13.7181 112.52C13.6031 112.285 13.4569 112.08 13.2793 111.904C13.1018 111.728 12.8969 111.588 12.6646 111.483C12.4291 111.377 12.1696 111.319 11.8861 111.309L11.6818 109.995C12.1167 109.998 12.5283 110.073 12.9168 110.218C13.3019 110.361 13.6486 110.57 13.9566 110.843C14.2614 111.114 14.5158 111.439 14.7199 111.818C14.9239 112.197 15.0635 112.624 15.1388 113.098C15.2573 113.845 15.1861 114.537 14.9252 115.177C14.6615 115.817 14.2253 116.358 13.6165 116.799C13.0073 117.238 12.2439 117.529 11.3264 117.675C10.406 117.82 9.58935 117.777 8.87647 117.544C8.16078 117.312 7.57982 116.932 7.13359 116.405C6.68455 115.878 6.401 115.242 6.28294 114.499C6.21032 114.041 6.20854 113.604 6.27761 113.188C6.34342 112.769 6.47743 112.381 6.67963 112.024C6.87902 111.668 7.14322 111.357 7.47223 111.092C7.79844 110.828 8.18725 110.622 8.63866 110.476Z" fill="#49341B"/>
<path d="M14.1085 104.444L5.38253 104.596L5.32808 101.486C5.31624 100.81 5.42288 100.247 5.64799 99.7968C5.87305 99.3439 6.18958 99.0031 6.59757 98.7744C7.00272 98.5457 7.47372 98.4267 8.01057 98.4173C8.54458 98.408 9.01664 98.512 9.42676 98.7293C9.83399 98.9438 10.1537 99.2735 10.386 99.7184C10.6182 100.16 10.7402 100.72 10.752 101.396L10.7933 103.752L9.65994 103.771L9.62078 101.535C9.61332 101.109 9.54618 100.763 9.41937 100.498C9.2925 100.23 9.11152 100.036 8.87641 99.9152C8.6413 99.7943 8.36042 99.7367 8.03377 99.7424C7.70427 99.7481 7.41992 99.817 7.18072 99.9491C6.94147 100.078 6.76029 100.279 6.6372 100.551C6.51121 100.82 6.45202 101.172 6.45963 101.607L6.48857 103.26L14.0854 103.127L14.1085 104.444ZM10.0962 100.205L13.9953 97.9805L14.0216 99.4803L10.1217 101.662L10.0962 100.205Z" fill="#49341B"/>
<path d="M14.3209 92.9796L5.65312 91.9626L6.29337 86.5286L7.41917 86.6607L6.933 90.7869L9.57397 91.0968L10.0267 87.2541L11.1483 87.3857L10.6955 91.2284L13.3492 91.5398L13.8414 87.3627L14.9672 87.4948L14.3209 92.9796Z" fill="#49341B"/>
<path d="M16.7741 78.9237L16.0553 81.656L7.61294 79.4443L8.35449 76.6255C8.57204 75.7985 8.92788 75.1326 9.42202 74.6277C9.91341 74.122 10.5153 73.7937 11.2278 73.6426C11.9382 73.4881 12.7317 73.5256 13.6084 73.7553C14.4878 73.9857 15.2013 74.3444 15.7488 74.8314C16.297 75.3157 16.662 75.9047 16.8438 76.5984C17.0228 77.2914 16.9996 78.0665 16.7741 78.9237ZM15.2773 80.091L15.6427 78.7022C15.8118 78.0593 15.8314 77.4932 15.7016 77.004C15.5691 76.5141 15.2998 76.1029 14.8937 75.7704C14.4849 75.4371 13.9466 75.1831 13.2788 75.0081C12.6165 74.8346 12.0267 74.7932 11.5094 74.8838C10.9927 74.9716 10.5603 75.1916 10.2121 75.5439C9.86386 75.8961 9.6088 76.3799 9.4469 76.9953L9.06095 78.4625L15.2773 80.091Z" fill="#49341B"/>
<path d="M12.0603 65.3722L20.181 68.5689L19.697 69.7934L11.5762 66.5968L12.0603 65.3722Z" fill="#49341B"/>
<path d="M15.9222 59.3647L14.9213 58.8326L18.1024 52.8743L19.1033 53.4065L17.8208 55.8086L24.5258 59.3735L23.9076 60.5313L17.2026 56.9664L15.9222 59.3647Z" fill="#49341B"/>
<path d="M31.6225 38.4537C31.2883 38.2231 30.9292 38.1591 30.5452 38.2618C30.159 38.3626 29.8015 38.6012 29.4725 38.9777C29.2369 39.2473 29.076 39.5177 28.9897 39.7892C28.9013 40.0587 28.8834 40.3124 28.9359 40.5501C28.9882 40.7839 29.1075 40.9819 29.294 41.1442C29.4504 41.2803 29.6172 41.3615 29.7943 41.3876C29.9734 41.4115 30.1538 41.3972 30.3356 41.3446C30.5172 41.2879 30.6944 41.2124 30.8674 41.1181C31.0382 41.022 31.1957 40.9237 31.34 40.8233L32.068 40.3271C32.3026 40.1622 32.5602 40.0078 32.8406 39.8639C33.121 39.7201 33.4152 39.6165 33.7233 39.5532C34.0314 39.4899 34.342 39.4928 34.6551 39.5619C34.9701 39.6289 35.2755 39.7911 35.5712 40.0484C35.9441 40.3729 36.1911 40.7574 36.3121 41.2017C36.435 41.6438 36.4212 42.1195 36.2706 42.6286C36.1218 43.1356 35.8231 43.6458 35.3744 44.1592C34.9444 44.6512 34.4942 45.0088 34.0237 45.2321C33.5532 45.4553 33.0856 45.5436 32.6208 45.4969C32.1539 45.4483 31.7129 45.2623 31.2978 44.9386L32.167 43.9439C32.4217 44.1317 32.6873 44.2272 32.9636 44.2304C33.2397 44.2296 33.5088 44.1569 33.7711 44.0123C34.033 43.8637 34.2752 43.662 34.4977 43.4075C34.7426 43.1273 34.9164 42.8398 35.0192 42.5451C35.1218 42.2465 35.1489 41.965 35.1006 41.7008C35.0502 41.4347 34.9178 41.2084 34.7035 41.0219C34.5085 40.8522 34.3002 40.7689 34.0787 40.772C33.8591 40.7729 33.6263 40.832 33.3804 40.9494C33.1363 41.0647 32.8804 41.2129 32.6126 41.3941L31.7218 41.986C31.1184 42.3873 30.5427 42.6207 29.995 42.6863C29.449 42.7498 28.9468 42.582 28.4882 42.1828C28.1089 41.8527 27.8675 41.4619 27.7641 41.0104C27.6607 40.5588 27.684 40.0896 27.8342 39.6026C27.9822 39.1138 28.2487 38.649 28.6338 38.2083C29.0226 37.7634 29.4439 37.4389 29.8976 37.2349C30.3531 37.0288 30.804 36.9467 31.2503 36.9886C31.6945 37.0287 32.0971 37.1983 32.4582 37.4974L31.6225 38.4537Z" fill="#49341B"/>
<path d="M41.2035 37.9002L35.4479 31.3398L39.5684 27.7398L40.3159 28.5918L37.1871 31.3255L38.9407 33.3244L41.8546 30.7786L42.5993 31.6274L39.6855 34.1732L41.4475 36.1817L44.6149 33.4144L45.3625 34.2665L41.2035 37.9002Z" fill="#49341B"/>
<path d="M52.9359 21.7722L51.8227 22.4991C51.6241 22.2895 51.4073 22.1325 51.1724 22.028C50.9374 21.9236 50.6942 21.8635 50.4428 21.8479C50.1913 21.8323 49.9399 21.8607 49.6885 21.9333C49.4395 22.0043 49.1985 22.1159 48.9653 22.2681C48.5443 22.543 48.2366 22.8949 48.0423 23.3238C47.8503 23.7512 47.7919 24.2321 47.8672 24.7665C47.9448 25.2994 48.1768 25.8604 48.5631 26.4496C48.9526 27.0435 49.3764 27.4827 49.8347 27.767C50.2953 28.0498 50.7606 28.1871 51.2307 28.1787C51.7008 28.1703 52.144 28.0302 52.5603 27.7583C52.791 27.6077 52.9896 27.4339 53.1561 27.237C53.3233 27.0361 53.4509 26.8188 53.5388 26.585C53.6266 26.3512 53.6704 26.1071 53.6702 25.8528C53.6707 25.5946 53.6172 25.3343 53.5098 25.072L54.6253 24.3486C54.8011 24.7462 54.9023 25.1518 54.9288 25.5653C54.9562 25.9749 54.9084 26.376 54.7853 26.7685C54.663 27.1571 54.4707 27.5219 54.2085 27.8628C53.9462 28.2037 53.6141 28.5054 53.2121 28.7679C52.5794 29.1811 51.9175 29.3995 51.2264 29.4233C50.5338 29.4447 49.861 29.2682 49.2079 28.8939C48.5572 28.5181 47.9772 27.9417 47.4678 27.1649C46.9568 26.3857 46.661 25.6237 46.5804 24.879C46.4982 24.1319 46.6063 23.4472 46.9048 22.8248C47.2017 22.2 47.6653 21.6818 48.2957 21.2701C48.6834 21.017 49.0816 20.8367 49.4902 20.7293C49.8996 20.6181 50.3088 20.5816 50.7178 20.6199C51.1253 20.6558 51.5175 20.7695 51.8944 20.961C52.2699 21.1502 52.617 21.4206 52.9359 21.7722Z" fill="#49341B"/>
<path d="M62.0974 14.0044L63.2961 13.4492L65.7169 18.6538C65.9745 19.2076 66.0726 19.7586 66.0111 20.3068C65.9484 20.8525 65.7382 21.3569 65.3802 21.8201C65.0211 22.2807 64.5245 22.6579 63.8904 22.9517C63.2588 23.2442 62.6509 23.3787 62.0665 23.3551C61.4809 23.3289 60.9591 23.1635 60.5011 22.8591C60.0418 22.5521 59.6834 22.1217 59.4258 21.5679L57.005 16.3633L58.1998 15.8099L60.5757 20.9179C60.7422 21.2759 60.9688 21.5576 61.2555 21.763C61.5447 21.9671 61.8721 22.0816 62.2377 22.1064C62.602 22.1286 62.984 22.0471 63.3836 21.8621C63.7857 21.6758 64.0959 21.4366 64.3141 21.1446C64.5337 20.8487 64.6561 20.5259 64.6814 20.1761C64.7092 19.825 64.6399 19.4705 64.4733 19.1125L62.0974 14.0044Z" fill="#49341B"/>
<path d="M72.1036 19.4951L69.5624 11.146L72.5394 10.2436C73.1865 10.0475 73.7573 9.99618 74.252 10.0897C74.7494 10.1823 75.1641 10.3935 75.4961 10.7233C75.8273 11.0504 76.0711 11.4708 76.2274 11.9845C76.383 12.4954 76.4125 12.9778 76.316 13.4315C76.2214 13.8817 75.992 14.2793 75.6278 14.6242C75.2663 14.9683 74.762 15.2384 74.1149 15.4345L71.8597 16.1181L71.5297 15.0337L73.6707 14.3847C74.0785 14.2611 74.3924 14.1021 74.6124 13.9078C74.8351 13.7127 74.9723 13.4855 75.0241 13.2264C75.0759 12.9673 75.0543 12.6814 74.9591 12.3689C74.8632 12.0536 74.7189 11.799 74.5262 11.6051C74.3363 11.4104 74.0935 11.291 73.798 11.247C73.5044 11.1994 73.1496 11.2387 72.7337 11.3648L71.1513 11.8444L73.3638 19.1131L72.1036 19.4951ZM75.0801 14.4785L78.2902 17.6199L76.8547 18.055L73.6854 14.9013L75.0801 14.4785Z" fill="#49341B"/>
<path d="M83.2079 16.5608L81.8114 7.94601L87.2131 7.074L87.3944 8.19292L83.2927 8.85507L83.7182 11.4799L87.5381 10.8632L87.7188 11.978L83.8989 12.5946L84.3264 15.2321L88.4786 14.5618L88.66 15.6807L83.2079 16.5608Z" fill="#49341B"/>
<path d="M105.367 15.2417L102.549 15.0376L103.182 6.33335L106.089 6.54385C106.942 6.6056 107.662 6.83289 108.249 7.22572C108.836 7.61571 109.268 8.14693 109.547 8.81938C109.829 9.4892 109.937 10.276 109.871 11.1799C109.805 12.0866 109.583 12.8538 109.204 13.4815C108.828 14.1094 108.315 14.5764 107.666 14.8826C107.018 15.186 106.251 15.3057 105.367 15.2417ZM103.946 13.9852L105.378 14.0889C106.042 14.1369 106.602 14.0522 107.059 13.8346C107.517 13.6142 107.872 13.2739 108.124 12.8137C108.377 12.3507 108.529 11.7749 108.579 11.0864C108.629 10.4035 108.562 9.81616 108.378 9.32435C108.197 8.83274 107.902 8.44819 107.492 8.1707C107.082 7.89322 106.56 7.7315 105.925 7.68554L104.412 7.57598L103.946 13.9852Z" fill="#49341B"/>
<path d="M117.857 8.11617L116.193 16.6834L114.901 16.4334L116.564 7.86615L117.857 8.11617Z" fill="#49341B"/>
<path d="M130.054 14.274C130.055 14.0028 130.02 13.7486 129.95 13.5114C129.883 13.2724 129.782 13.0549 129.645 12.859C129.509 12.6603 129.336 12.4872 129.127 12.3397C128.92 12.1931 128.679 12.0756 128.403 11.9872C127.935 11.8374 127.474 11.8226 127.021 11.9429C126.567 12.0633 126.156 12.3209 125.788 12.716C125.423 13.1092 125.132 13.6411 124.917 14.3119C124.7 14.9853 124.627 15.5897 124.696 16.1251C124.766 16.6604 124.953 17.1095 125.257 17.4724C125.561 17.8352 125.957 18.0946 126.444 18.2505C126.895 18.3951 127.319 18.4292 127.713 18.3527C128.111 18.277 128.455 18.1009 128.747 17.8245C129.042 17.5462 129.264 17.1785 129.41 16.7214L129.716 16.8862L127.337 16.1248L127.67 15.0903L130.937 16.1362L130.633 17.0814C130.409 17.7792 130.065 18.3374 129.602 18.756C129.143 19.1728 128.608 19.4369 127.996 19.5483C127.387 19.6606 126.747 19.6093 126.076 19.3945C125.324 19.1537 124.719 18.7693 124.262 18.2412C123.808 17.714 123.525 17.0819 123.413 16.345C123.301 15.6054 123.386 14.7974 123.668 13.9211C123.881 13.2585 124.164 12.693 124.518 12.2244C124.871 11.7559 125.274 11.391 125.725 11.1298C126.179 10.8666 126.664 10.71 127.178 10.6599C127.696 10.608 128.224 10.6682 128.763 10.8406C129.212 10.9843 129.609 11.1844 129.953 11.4408C130.3 11.698 130.586 11.9969 130.811 12.3373C131.038 12.6786 131.198 13.049 131.291 13.4484C131.384 13.8452 131.401 14.2577 131.34 14.6859L130.054 14.274Z" fill="#49341B"/>
<path d="M139.113 15.0333L135.474 22.9655L134.276 22.4182L137.916 14.4861L139.113 15.0333Z" fill="#49341B"/>
<path d="M144.919 19.2049L145.506 18.235L151.291 21.721L150.705 22.6908L148.372 21.2854L144.441 27.7824L143.317 27.105L147.248 20.608L144.919 19.2049Z" fill="#49341B"/>
<path d="M151.546 32.6408L150.461 31.7599L158.413 26.9747L159.594 27.9335L156.518 36.6775L155.433 35.7966L158.03 28.7057L157.977 28.6627L151.546 32.6408ZM153.887 30.1395L157.407 32.9972L156.707 33.8559L153.187 30.9983L153.887 30.1395Z" fill="#49341B"/>
<path d="M160.286 40.3407L166.657 34.3769L167.559 35.3364L162.015 40.5256L164.723 43.4071L163.896 44.1817L160.286 40.3407Z" fill="#49341B"/>
<path d="M179.78 55.6585C180.105 55.4154 180.28 55.0958 180.304 54.6997C180.331 54.3023 180.217 53.888 179.963 53.4571C179.782 53.1486 179.576 52.9104 179.345 52.7426C179.117 52.5734 178.882 52.4758 178.639 52.4501C178.4 52.4253 178.175 52.4754 177.961 52.6003C177.782 52.7052 177.652 52.8373 177.571 52.9967C177.492 53.1585 177.448 53.3338 177.441 53.5226C177.437 53.7125 177.453 53.9042 177.488 54.0978C177.525 54.29 177.568 54.4703 177.618 54.6388L177.859 55.4854C177.941 55.7598 178.007 56.0525 178.054 56.3636C178.102 56.6747 178.108 56.9861 178.07 57.2978C178.033 57.6095 177.931 57.9025 177.767 58.1769C177.603 58.4538 177.352 58.6913 177.014 58.8895C176.588 59.1394 176.144 59.2511 175.683 59.2247C175.224 59.2006 174.777 59.0365 174.341 58.7323C173.906 58.4305 173.516 57.9858 173.17 57.3981C172.839 56.835 172.641 56.2953 172.578 55.7791C172.515 55.2629 172.58 54.7923 172.771 54.3672C172.965 53.9407 173.282 53.5824 173.721 53.2922L174.391 54.4308C174.132 54.6122 173.957 54.8332 173.866 55.0937C173.779 55.3553 173.763 55.6331 173.818 55.9272C173.876 56.2223 173.991 56.5156 174.162 56.807C174.351 57.1277 174.569 57.3835 174.816 57.5744C175.068 57.7663 175.327 57.8813 175.593 57.9195C175.862 57.9562 176.119 57.9028 176.364 57.7592C176.587 57.6285 176.732 57.4578 176.799 57.2472C176.868 57.039 176.886 56.7999 176.852 56.5299C176.82 56.2623 176.76 55.973 176.673 55.662L176.392 54.631C176.202 53.9324 176.163 53.3135 176.274 52.7742C176.386 52.2374 176.705 51.8153 177.23 51.5079C177.663 51.2537 178.111 51.1493 178.573 51.1948C179.035 51.2403 179.473 51.4114 179.889 51.7081C180.306 52.0034 180.664 52.4032 180.96 52.9076C181.26 53.4169 181.435 53.9186 181.485 54.4128C181.537 54.9094 181.472 55.3622 181.291 55.7713C181.112 56.179 180.823 56.5062 180.424 56.753L179.78 55.6585Z" fill="#49341B"/>
<path d="M185.413 61.6041L186.008 63.0871L180.743 68.1832L180.782 68.2781L188.116 68.3392L188.711 69.8222L180.607 73.0608L180.14 71.898L186.005 69.5545L185.975 69.4794L179.164 69.4294L178.776 68.4645L183.674 63.7354L183.644 63.6602L177.776 66.0053L177.309 64.8426L185.413 61.6041Z" fill="#49341B"/>
<path d="M182.235 78.8753L181.921 77.5132L191.132 78.6247L191.473 80.1073L183.671 85.1171L183.357 83.7549L189.766 79.7553L189.751 79.6889L182.235 78.8753ZM185.619 78.3404L186.635 82.7591L185.555 83.0065L184.539 78.5879L185.619 78.3404Z" fill="#49341B"/>
<path d="M184.392 90.2978L193.087 89.5497L193.355 92.649C193.413 93.3226 193.346 93.8916 193.152 94.3559C192.958 94.8231 192.666 95.1847 192.275 95.4408C191.886 95.6966 191.425 95.8475 190.89 95.8936C190.357 95.9394 189.879 95.8679 189.455 95.6791C189.034 95.4929 188.693 95.1858 188.43 94.7579C188.168 94.3327 188.008 93.7833 187.95 93.1097L187.747 90.7619L188.877 90.6648L189.069 92.8937C189.106 93.3182 189.197 93.6583 189.341 93.9139C189.486 94.1723 189.68 94.3538 189.923 94.4584C190.166 94.5629 190.45 94.6012 190.775 94.5732C191.104 94.545 191.383 94.4568 191.612 94.3087C191.842 94.1635 192.009 93.951 192.113 93.6711C192.221 93.3939 192.255 93.0387 192.218 92.6057L192.076 90.9584L184.506 91.6097L184.392 90.2978ZM188.686 94.2525L184.949 96.7383L184.82 95.2439L188.561 92.8006L188.686 94.2525Z" fill="#49341B"/>
<path d="M192.573 101.687L193.705 101.742L193.377 108.489L192.245 108.434L192.377 105.714L184.792 105.347L184.856 104.036L192.441 104.403L192.573 101.687Z" fill="#49341B"/>
<path d="M182.429 120.961L190.827 123.336L189.977 126.328C189.792 126.981 189.519 127.489 189.16 127.851C188.8 128.212 188.383 128.441 187.91 128.538C187.439 128.635 186.947 128.611 186.433 128.466C185.917 128.32 185.483 128.08 185.131 127.748C184.782 127.418 184.548 127.004 184.43 126.504C184.314 126.008 184.348 125.434 184.533 124.784L185.117 122.726L186.192 123.03L185.64 124.973C185.523 125.386 185.499 125.741 185.568 126.038C185.64 126.336 185.783 126.58 185.998 126.77C186.212 126.961 186.478 127.101 186.795 127.191C187.112 127.28 187.411 127.3 187.691 127.249C187.971 127.199 188.218 127.063 188.431 126.843C188.644 126.626 188.81 126.306 188.929 125.886L189.381 124.295L182.069 122.227L182.429 120.961Z" fill="#49341B"/>
<path d="M178.9 131.872L186.904 135.35L185.66 138.201C185.389 138.821 185.058 139.289 184.666 139.605C184.273 139.923 183.843 140.102 183.377 140.141C182.913 140.181 182.435 140.094 181.942 139.88C181.453 139.667 181.066 139.377 180.783 139.009C180.502 138.646 180.348 138.213 180.322 137.712C180.294 137.214 180.416 136.655 180.686 136.035L181.629 133.875L182.668 134.327L181.774 136.378C181.603 136.768 181.521 137.11 181.526 137.404C181.53 137.7 181.614 137.952 181.777 138.159C181.941 138.366 182.173 138.535 182.472 138.665C182.775 138.797 183.062 138.852 183.335 138.831C183.606 138.813 183.854 138.705 184.08 138.509C184.306 138.316 184.507 138.021 184.68 137.622L185.342 136.107L178.373 133.079L178.9 131.872ZM180.788 137.39L176.314 137.797L176.914 136.422L181.371 136.054L180.788 137.39Z" fill="#49341B"/>
<path d="M180.776 147.74L173.218 143.376L173.878 142.237L181.436 146.601L180.776 147.74Z" fill="#49341B"/>
<path d="M176.252 154.774L169.102 152.457L169.043 152.536L173.275 158.736L172.42 159.874L167.319 152.134L168.233 150.918L177.107 153.636L176.252 154.774Z" fill="#49341B"/>
<path d="M161.425 159.059L162.417 158.075L166.347 166.469L165.267 167.541L156.878 163.57L157.87 162.586L164.662 165.908L164.711 165.86L161.425 159.059ZM163.67 161.645L160.452 164.839L159.67 164.054L162.888 160.86L163.67 161.645Z" fill="#49341B"/>
<path d="M157.749 172.735L158.429 173.642L153.019 177.685L152.338 176.779L154.52 175.148L149.962 169.075L151.013 168.289L155.571 174.363L157.749 172.735Z" fill="#49341B"/>
<path d="M143.408 173.455L147.662 181.075L142.88 183.733L142.327 182.744L145.959 180.725L144.662 178.403L141.281 180.283L140.73 179.297L144.112 177.417L142.81 175.084L139.134 177.128L138.581 176.138L143.408 173.455Z" fill="#49341B"/>
<g filter="url(#filter0_d_3_617)">
<path d="M72.1407 189.811L74.7222 179.962L78.6063 181.2C79.32 181.428 79.8871 181.725 80.3076 182.092C80.7281 182.459 81.0084 182.871 81.1484 183.329C81.2892 183.784 81.295 184.258 81.1655 184.752C81.0647 185.137 80.9003 185.451 80.6722 185.694C80.445 185.934 80.1744 186.105 79.8604 186.207C79.5504 186.306 79.2164 186.34 78.8583 186.309L78.8331 186.405C79.1984 186.539 79.5164 186.755 79.7873 187.054C80.0613 187.353 80.2531 187.711 80.3628 188.128C80.4733 188.542 80.4651 188.991 80.3382 189.475C80.2012 189.998 79.9511 190.423 79.5877 190.752C79.2284 191.079 78.7697 191.282 78.2117 191.361C77.6538 191.44 77.0117 191.364 76.2854 191.133L72.1407 189.811ZM74.6379 188.763L76.31 189.296C76.8816 189.478 77.3274 189.5 77.6475 189.363C77.9684 189.222 78.1776 188.965 78.2751 188.593C78.3465 188.321 78.3448 188.06 78.2699 187.81C78.1951 187.56 78.0532 187.338 77.8443 187.143C77.6386 186.949 77.3715 186.799 77.0431 186.695L75.3236 186.147L74.6379 188.763ZM75.693 184.737L77.2135 185.222C77.4945 185.312 77.757 185.342 78.0009 185.312C78.2489 185.28 78.4604 185.191 78.6354 185.045C78.8136 184.9 78.9368 184.698 79.0048 184.438C79.0981 184.082 79.0486 183.756 78.8563 183.458C78.6671 183.162 78.3451 182.941 77.8904 182.796L76.332 182.299L75.693 184.737Z" fill="#532E03"/>
<path d="M91.9336 184.05L94.0605 184.382L93.2183 190.94C93.1237 191.677 92.8658 192.294 92.4445 192.791C92.0264 193.289 91.4848 193.644 90.8197 193.855C90.155 194.063 89.4067 194.102 88.5749 193.972C87.7399 193.842 87.0293 193.575 86.4431 193.172C85.8573 192.765 85.4263 192.258 85.1501 191.652C84.8739 191.045 84.7831 190.374 84.8777 189.637L85.7199 183.079L87.8468 183.411L87.028 189.787C86.9786 190.172 87.0182 190.527 87.1468 190.852C87.2787 191.178 87.4875 191.45 87.7734 191.669C88.0593 191.888 88.4069 192.03 88.8162 192.094C89.2288 192.158 89.5984 192.129 89.9249 192.005C90.2546 191.882 90.5222 191.684 90.7277 191.411C90.9364 191.139 91.0654 190.81 91.1148 190.426L91.9336 184.05Z" fill="#532E03"/>
<path d="M103.334 187.468C103.294 187.067 103.123 186.755 102.822 186.533C102.52 186.311 102.111 186.2 101.594 186.2C101.242 186.2 100.946 186.25 100.704 186.349C100.462 186.445 100.276 186.58 100.147 186.752C100.021 186.924 99.9579 187.12 99.9579 187.339C99.9513 187.521 99.9894 187.68 100.072 187.816C100.158 187.952 100.276 188.069 100.425 188.169C100.574 188.265 100.747 188.349 100.942 188.422C101.138 188.492 101.347 188.552 101.569 188.601L102.484 188.82C102.928 188.919 103.335 189.052 103.707 189.218C104.078 189.383 104.399 189.587 104.671 189.829C104.943 190.071 105.153 190.356 105.302 190.684C105.455 191.013 105.533 191.389 105.536 191.813C105.533 192.436 105.374 192.976 105.059 193.434C104.747 193.888 104.296 194.241 103.707 194.493C103.12 194.741 102.412 194.865 101.584 194.865C100.762 194.865 100.046 194.74 99.4359 194.488C98.8294 194.236 98.3554 193.863 98.014 193.369C97.676 192.872 97.4987 192.257 97.4821 191.525H99.5652C99.5884 191.866 99.6862 192.151 99.8585 192.38C100.034 192.605 100.268 192.776 100.559 192.892C100.854 193.004 101.188 193.061 101.559 193.061C101.923 193.061 102.24 193.008 102.508 192.902C102.78 192.796 102.991 192.648 103.14 192.459C103.289 192.27 103.363 192.053 103.363 191.808C103.363 191.579 103.296 191.387 103.16 191.231C103.027 191.075 102.832 190.943 102.573 190.834C102.318 190.724 102.005 190.625 101.633 190.535L100.525 190.257C99.6663 190.048 98.9885 189.722 98.4913 189.277C97.9942 188.833 97.7472 188.235 97.7505 187.483C97.7472 186.866 97.9113 186.328 98.2427 185.867C98.5775 185.406 99.0365 185.047 99.6199 184.788C100.203 184.53 100.866 184.4 101.609 184.4C102.364 184.4 103.024 184.53 103.587 184.788C104.154 185.047 104.595 185.406 104.91 185.867C105.225 186.328 105.387 186.861 105.397 187.468H103.334Z" fill="#532E03"/>
<path d="M114.016 193.734L110.45 194.291L109.153 184.192L112.749 183.631C113.76 183.473 114.657 183.539 115.44 183.829C116.221 184.116 116.857 184.605 117.347 185.297C117.84 185.988 118.153 186.857 118.288 187.906C118.423 188.958 118.341 189.893 118.042 190.711C117.746 191.529 117.256 192.197 116.571 192.716C115.889 193.235 115.038 193.575 114.016 193.734ZM112.342 192.13L113.693 191.919C114.321 191.82 114.836 191.626 115.236 191.335C115.639 191.041 115.919 190.64 116.074 190.133C116.232 189.622 116.263 188.99 116.166 188.238C116.07 187.491 115.882 186.899 115.602 186.46C115.325 186.02 114.958 185.722 114.5 185.565C114.042 185.409 113.499 185.38 112.871 185.478L111.515 185.69L112.342 192.13Z" fill="#532E03"/>
<path d="M121.216 183.755L120.766 182.038L128.733 179.498L129.183 181.215L126.213 182.162L128.344 190.294L126.317 190.941L124.186 182.808L121.216 183.755Z" fill="#532E03"/>
</g>
<g filter="url(#filter1_d_3_617)">
<path d="M65 178L66.1226 181.455H69.7553L66.8164 183.59L67.9389 187.045L65 184.91L62.0611 187.045L63.1836 183.59L60.2447 181.455H63.8774L65 178Z" fill="#FF7A00" shape-rendering="crispEdges"/>
<path d="M65 178L66.1226 181.455H69.7553L66.8164 183.59L67.9389 187.045L65 184.91L62.0611 187.045L63.1836 183.59L60.2447 181.455H63.8774L65 178Z" stroke="#FFD5AE" stroke-opacity="0.4" shape-rendering="crispEdges"/>
</g>
<g filter="url(#filter2_d_3_617)">
<path d="M136 179L137.123 182.455H140.755L137.816 184.59L138.939 188.045L136 185.91L133.061 188.045L134.184 184.59L131.245 182.455H134.877L136 179Z" fill="#FF7A00" shape-rendering="crispEdges"/>
<path d="M136 179L137.123 182.455H140.755L137.816 184.59L138.939 188.045L136 185.91L133.061 188.045L134.184 184.59L131.245 182.455H134.877L136 179Z" stroke="#FFD5AE" stroke-opacity="0.4" shape-rendering="crispEdges"/>
</g>
<g filter="url(#filter3_bd_3_617)">
<path d="M100 167L28.6708 120.359L55.9161 44.8914L144.084 44.8914L171.329 120.359L100 167Z" fill="url(#paint1_linear_3_617)" shape-rendering="crispEdges"/>
<path d="M98.9054 168.674L100 169.39L101.095 168.674L172.424 122.033L173.747 121.167L173.21 119.68L145.965 44.2122L145.488 42.8914H144.084L55.9161 42.8914H54.5118L54.0349 44.2122L26.7896 119.68L26.2526 121.167L27.5762 122.033L98.9054 168.674Z" stroke="url(#paint2_radial_3_617)" stroke-opacity="0.37" stroke-width="4" shape-rendering="crispEdges"/>
</g>
<g filter="url(#filter4_d_3_617)">
<path d="M62.75 73.858V56.7273H136.514V73.858H110.051V144H89.2557V73.858H62.75Z" fill="url(#paint3_diamond_3_617)" shape-rendering="crispEdges"/>
<path d="M62.75 73.858H58.75V77.858H62.75V73.858ZM62.75 56.7273V52.7273H58.75V56.7273H62.75ZM136.514 56.7273H140.514V52.7273H136.514V56.7273ZM136.514 73.858V77.858H140.514V73.858H136.514ZM110.051 73.858V69.858H106.051V73.858H110.051ZM110.051 144V148H114.051V144H110.051ZM89.2557 144H85.2557V148H89.2557V144ZM89.2557 73.858H93.2557V69.858H89.2557V73.858ZM66.75 73.858V56.7273H58.75V73.858H66.75ZM62.75 60.7273H136.514V52.7273H62.75V60.7273ZM132.514 56.7273V73.858H140.514V56.7273H132.514ZM136.514 69.858H110.051V77.858H136.514V69.858ZM106.051 73.858V144H114.051V73.858H106.051ZM110.051 140H89.2557V148H110.051V140ZM93.2557 144V73.858H85.2557V144H93.2557ZM89.2557 69.858H62.75V77.858H89.2557V69.858Z" fill="url(#paint4_diamond_3_617)"/>
</g>
<path d="M80.5 101C29 120 171.5 120 120.5 101" stroke="url(#paint5_linear_3_617)" stroke-opacity="0.76" stroke-width="3"/>
<defs>
<filter id="filter0_d_3_617" x="66.1407" y="174.498" width="71.1736" height="27.3671" filterUnits="userSpaceOnUse" color-interpolation-filters="sRGB">
<feFlood flood-opacity="0" result="BackgroundImageFix"/>
<feColorMatrix in="SourceAlpha" type="matrix" values="0 0 0 0 0 0 0 0 0 0 0 0 0 0 0 0 0 0 127 0" result="hardAlpha"/>
<feOffset dy="1"/>
<feGaussianBlur stdDeviation="3"/>
<feComposite in2="hardAlpha" operator="out"/>
<feColorMatrix type="matrix" values="0 0 0 0 1 0 0 0 0 0.835333 0 0 0 0 0.683333 0 0 0 1 0"/>
<feBlend mode="normal" in2="BackgroundImageFix" result="effect1_dropShadow_3_617"/>
<feBlend mode="normal" in="SourceGraphic" in2="effect1_dropShadow_3_617" result="shape"/>
</filter>
<filter id="filter1_d_3_617" x="55.7059" y="173.382" width="18.5883" height="17.9721" filterUnits="userSpaceOnUse" color-interpolation-filters="sRGB">
<feFlood flood-opacity="0" result="BackgroundImageFix"/>
<feColorMatrix in="SourceAlpha" type="matrix" values="0 0 0 0 0 0 0 0 0 0 0 0 0 0 0 0 0 0 127 0" result="hardAlpha"/>
<feOffset/>
<feGaussianBlur stdDeviation="1.5"/>
<feComposite in2="hardAlpha" operator="out"/>
<feColorMatrix type="matrix" values="0 0 0 0 1 0 0 0 0 0.025 0 0 0 0 0.025 0 0 0 0.68 0"/>
<feBlend mode="normal" in2="BackgroundImageFix" result="effect1_dropShadow_3_617"/>
<feBlend mode="normal" in="SourceGraphic" in2="effect1_dropShadow_3_617" result="shape"/>
</filter>
<filter id="filter2_d_3_617" x="126.706" y="174.382" width="18.5883" height="17.9721" filterUnits="userSpaceOnUse" color-interpolation-filters="sRGB">
<feFlood flood-opacity="0" result="BackgroundImageFix"/>
<feColorMatrix in="SourceAlpha" type="matrix" values="0 0 0 0 0 0 0 0 0 0 0 0 0 0 0 0 0 0 127 0" result="hardAlpha"/>
<feOffset/>
<feGaussianBlur stdDeviation="1.5"/>
<feComposite in2="hardAlpha" operator="out"/>
<feColorMatrix type="matrix" values="0 0 0 0 1 0 0 0 0 0.025 0 0 0 0 0.025 0 0 0 0.68 0"/>
<feBlend mode="normal" in2="BackgroundImageFix" result="effect1_dropShadow_3_617"/>
<feBlend mode="normal" in="SourceGraphic" in2="effect1_dropShadow_3_617" result="shape"/>
</filter>
<filter id="filter3_bd_3_617" x="13.8344" y="30.8914" width="172.331" height="150.888" filterUnits="userSpaceOnUse" color-interpolation-filters="sRGB">
<feFlood flood-opacity="0" result="BackgroundImageFix"/>
<feGaussianBlur in="BackgroundImageFix" stdDeviation="5"/>
<feComposite in2="SourceAlpha" operator="in" result="effect1_backgroundBlur_3_617"/>
<feColorMatrix in="SourceAlpha" type="matrix" values="0 0 0 0 0 0 0 0 0 0 0 0 0 0 0 0 0 0 127 0" result="hardAlpha"/>
<feOffset dy="4"/>
<feGaussianBlur stdDeviation="2"/>
<feComposite in2="hardAlpha" operator="out"/>
<feColorMatrix type="matrix" values="0 0 0 0 0 0 0 0 0 0 0 0 0 0 0 0 0 0 0.25 0"/>
<feBlend mode="normal" in2="effect1_backgroundBlur_3_617" result="effect2_dropShadow_3_617"/>
<feBlend mode="normal" in="SourceGraphic" in2="effect2_dropShadow_3_617" result="shape"/>
</filter>
<filter id="filter4_d_3_617" x="52.75" y="46.7273" width="93.7642" height="107.273" filterUnits="userSpaceOnUse" color-interpolation-filters="sRGB">
<feFlood flood-opacity="0" result="BackgroundImageFix"/>
<feColorMatrix in="SourceAlpha" type="matrix" values="0 0 0 0 0 0 0 0 0 0 0 0 0 0 0 0 0 0 127 0" result="hardAlpha"/>
<feOffset/>
<feGaussianBlur stdDeviation="5"/>
<feComposite in2="hardAlpha" operator="out"/>
<feColorMatrix type="matrix" values="0 0 0 0 1 0 0 0 0 0.835333 0 0 0 0 0.683333 0 0 0 1 0"/>
<feBlend mode="normal" in2="BackgroundImageFix" result="effect1_dropShadow_3_617"/>
<feBlend mode="normal" in="SourceGraphic" in2="effect1_dropShadow_3_617" result="shape"/>
</filter>
<linearGradient id="paint0_linear_3_617" x1="0" y1="100" x2="200" y2="100" gradientUnits="userSpaceOnUse">
<stop stop-color="#E1A140"/>
<stop offset="0.515625" stop-color="#E67C1A"/>
<stop offset="1" stop-color="#955305"/>
</linearGradient>
<linearGradient id="paint1_linear_3_617" x1="100" y1="167" x2="100" y2="32" gradientUnits="userSpaceOnUse">
<stop stop-color="#DB700E"/>
<stop offset="1" stop-color="#F0BE71"/>
</linearGradient>
<radialGradient id="paint2_radial_3_617" cx="0" cy="0" r="1" gradientUnits="userSpaceOnUse" gradientTransform="translate(100 100) rotate(-90) scale(68 75.5556)">
<stop offset="0.890625" stop-color="#F0BE71"/>
<stop offset="0.916667" stop-color="#F0BE71" stop-opacity="0.63"/>
</radialGradient>
<radialGradient id="paint3_diamond_3_617" cx="0" cy="0" r="1" gradientUnits="userSpaceOnUse" gradientTransform="translate(98 94) rotate(90) scale(66 39)">
<stop stop-color="#FF7A00"/>
<stop offset="0.927083" stop-color="#DB700E" stop-opacity="0.51"/>
</radialGradient>
<radialGradient id="paint4_diamond_3_617" cx="0" cy="0" r="1" gradientUnits="userSpaceOnUse" gradientTransform="translate(98 79) rotate(90) scale(81 47.8636)">
<stop stop-color="#C88F39" stop-opacity="0.76"/>
<stop offset="1" stop-color="#F0BE71"/>
</radialGradient>
<linearGradient id="paint5_linear_3_617" x1="100.401" y1="101" x2="100.401" y2="115.25" gradientUnits="userSpaceOnUse">
<stop stop-color="#C88F39"/>
<stop offset="1" stop-color="#FEEACC"/>
</linearGradient>
</defs>
</svg>
